<?xml version="1.0" encoding="UTF-8" standalone="no"?>
<svg
   width="318pt"
   height="432pt"
   viewBox="0 0 318 432"
   version="1.1"
   id="svg436"
   sodipodi:docname="arena8.svg"
   inkscape:version="1.2.2 (b0a8486541, 2022-12-01)"
   xmlns:inkscape="http://www.inkscape.org/namespaces/inkscape"
   xmlns:sodipodi="http://sodipodi.sourceforge.net/DTD/sodipodi-0.dtd"
   xmlns="http://www.w3.org/2000/svg"
   xmlns:svg="http://www.w3.org/2000/svg">
  <defs
     id="defs440" />
  <sodipodi:namedview
     id="namedview438"
     pagecolor="#ffffff"
     bordercolor="#666666"
     borderopacity="1.0"
     inkscape:showpageshadow="2"
     inkscape:pageopacity="0.0"
     inkscape:pagecheckerboard="0"
     inkscape:deskcolor="#d1d1d1"
     inkscape:document-units="pt"
     showgrid="false"
     inkscape:zoom="1.7829861"
     inkscape:cx="109.36709"
     inkscape:cy="288.28043"
     inkscape:window-width="2560"
     inkscape:window-height="1423"
     inkscape:window-x="0"
     inkscape:window-y="17"
     inkscape:window-maximized="1"
     inkscape:current-layer="svg436" />
  <g
     id="surface72"
     transform="matrix(0.27590003,0,0,0.2006606,114.8745,172.25764)"
     style="stroke-width:4.25004">
    <path
       style="fill:#a8c5f0;fill-opacity:1;fill-rule:evenodd;stroke:none;stroke-width:18.0628"
       d="m 25.796875,373.54687 5.910156,7.05469 6.636719,6.61328 7.367188,6.16797 8.109374,5.69141 8.773438,5.15234 9.429688,4.61328 10.09375,4.07032 10.746093,3.53515 9.464849,2.51172 13.91015,2.77734 12.52344,1.69141 13.07812,1.05859 13.63672,0.42188 14.39453,-0.22656 13.86719,-0.91016 13.20703,-1.58984 12.53516,-2.27735 11.87109,-2.95703 11.21094,-3.60937 10.46875,-4.12891 9.72656,-4.63672 8.98047,-5.14453 8.23438,-5.65234 8.70312,-7.19532 6.65625,-6.62109 8.58594,-10.71875 6.22656,-10.32422 5.40625,-12.47265 3.26953,-11.6875 1.94141,-13.82813 0.17969,-13.3125 -1.33594,-13.89453 -2.88281,-12.80078 -4.36329,-11.78125 -5.61328,-10.83594 -6.16797,-9.01953 -8.60546,-9.90625 -8.9961,-8.25781 -10.98828,-8.10157 -13.69922,-8.48437 L 234.87109,207.5 v -2.57813 l 13.15625,-10.41406 13.16016,-10.41406 8.82422,-9.44922 6.92578,-8.70312 5.84766,-9.23047 3.83984,-8.08594 2.90234,-8.44531 2.25,-10.60547 0.89844,-11.12109 -0.63672,-14.83204 -1.96875,-12.335934 -3.27734,-11.746094 -5.22656,-12.5 -5.83985,-10.253906 -6.95703,-9.335937 -8.07031,-8.417969 -9.17188,-7.507812 L 239.95703,24.160156 227.0625,17.941406 214.49609,13.371094 201.00781,9.84375 186.67187,7.445312 171.48828,6.175781 153.74219,6.09375 l -15.1836,1.085938 -14.54687,2.171874 -15.60547,3.742188 -13.046875,4.445312 -12.019531,5.453126 -10.992188,6.449218 -11.128906,8.441406 -8.742188,8.417969 -7.621093,9.285157 -6.511719,10.140624 -5.355469,10.984376 -3.957031,11.691406 -2.519531,12.386716 -1.019531,11.40235 0.1875,13.52734 1.515624,12.05469 2.261719,9.44922 3.160157,8.90234 4.070312,8.35547 4.96875,7.80859 10.214844,10.07031 10.21875,10.06641 20.429687,20.13281 v 2.58203 l -9.082031,4.75 -8.792969,5.08985 -8.511719,5.43359 -7.25,5.12891 -13.179687,11.34765 -10.675781,11.98438 -8.046875,12.45703 -6.089844,13.69531 -3.410156,13.94922 -1.132813,15.25 0.839844,9.59375 0.839844,9.58985 4.5,16.30859 3.644531,8.375 4.445313,7.94922 z m 187.898435,-233.99609 1.83203,-10.33203 0.043,-12.42578 -2.04687,-11.22656 -4.08985,-9.914066 -6.13672,-8.601563 -6.98046,-6.339843 -8.41016,-4.808594 -11.36719,-3.578125 -13.24609,-1.535157 -12.07422,0.390626 -11.71484,2.394531 -10.53907,4.449219 -12.66796,10.09375 -7.28125,14.644532 -1.54688,9.78125 0.0664,9.45312 1.74609,9.05078 3.49219,8.19141 8.50781,10.66016 13.90625,9.72265 11.71094,6.30469 11.17187,5.24219 12.22266,5.09375 15.57812,5.75 9.15235,-9.21875 8.78906,-11.39844 5.49219,-9.77734 z m 7.55469,188.5625 2.49609,-11.71094 -0.0664,-12.82422 -2.70703,-10.3789 -5.8125,-9.35547 -9.22657,-8.91406 -11.26172,-7.60547 -14.49609,-7.51953 -5.37109,-2.375 -5.64453,-2.3086 -2.33204,-0.90234 -9.74609,-3.74609 -9.74219,-3.74219 -9.74609,-3.7461 -9.74609,-3.74218 -9.07032,7.0039 -9.125,8.4336 -7.15234,7.99218 -6.195312,8.44532 -6.816407,14.8164 -2.503906,17.57813 0.839844,10.20703 3.109375,10.71875 4.484375,8.17578 7.359371,8.35547 9.5586,7.04687 10.87109,5.47657 11.96484,3.84375 13.05469,2.21484 15.82813,0.54297 14.10156,-1.32422 12.52344,-3.08594 10.94531,-4.84765 9.24609,-6.64844 6.14453,-7.33594 z m 0,0"
       id="path427" />
    <path
       style="fill:none;stroke:#859cbd;stroke-width:4.25004;stroke-linecap:square;stroke-linejoin:miter;stroke-miterlimit:3.25;stroke-opacity:1"
       d="m 25.796875,373.54687 5.910156,7.05469 6.636719,6.61328 7.367188,6.16797 8.109374,5.69141 8.773438,5.15234 9.429688,4.61328 10.09375,4.07032 10.746093,3.53515 9.464849,2.51172 13.91015,2.77734 12.52344,1.69141 13.07812,1.05859 13.63672,0.42188 14.39453,-0.22656 13.86719,-0.91016 13.20703,-1.58984 12.53516,-2.27735 11.87109,-2.95703 11.21094,-3.60937 10.46875,-4.12891 9.72656,-4.63672 8.98047,-5.14453 8.23438,-5.65234 8.70312,-7.19532 6.65625,-6.62109 8.58594,-10.71875 6.22656,-10.32422 5.40625,-12.47265 3.26953,-11.6875 1.94141,-13.82813 0.17969,-13.3125 -1.33594,-13.89453 -2.88281,-12.80078 -4.36329,-11.78125 -5.61328,-10.83594 -6.16797,-9.01953 -8.60546,-9.90625 -8.9961,-8.25781 -10.98828,-8.10157 -13.69922,-8.48437 L 234.87109,207.5 v -2.57813 l 13.15625,-10.41406 13.16016,-10.41406 8.82422,-9.44922 6.92578,-8.70312 5.84766,-9.23047 3.83984,-8.08594 2.90234,-8.44531 2.25,-10.60547 0.89844,-11.12109 -0.63672,-14.83204 -1.96875,-12.335934 -3.27734,-11.746094 -5.22656,-12.5 -5.83985,-10.253906 -6.95703,-9.335937 -8.07031,-8.417969 -9.17188,-7.507812 L 239.95703,24.160156 227.0625,17.941406 214.49609,13.371094 201.00781,9.84375 186.67187,7.445312 171.48828,6.175781 153.74219,6.09375 l -15.1836,1.085938 -14.54687,2.171874 -15.60547,3.742188 -13.046875,4.445312 -12.019531,5.453126 -10.992188,6.449218 -11.128906,8.441406 -8.742188,8.417969 -7.621093,9.285157 -6.511719,10.140624 -5.355469,10.984376 -3.957031,11.691406 -2.519531,12.386716 -1.019531,11.40235 0.1875,13.52734 1.515624,12.05469 2.261719,9.44922 3.160157,8.90234 4.070312,8.35547 4.96875,7.80859 10.214844,10.07031 10.21875,10.06641 20.429687,20.13281 v 2.58203 l -9.082031,4.75 -8.792969,5.08985 -8.511719,5.43359 -7.25,5.12891 -13.179687,11.34765 -10.675781,11.98438 -8.046875,12.45703 -6.089844,13.69531 -3.410156,13.94922 -1.132813,15.25 0.839844,9.59375 0.839844,9.58985 4.5,16.30859 3.644531,8.375 4.445313,7.94922 z m 0,0"
       id="path429" />
    <path
       style="fill:none;stroke:#859cbd;stroke-width:4.25004;stroke-linecap:square;stroke-linejoin:miter;stroke-miterlimit:3.25;stroke-opacity:1"
       d="m 213.69531,139.55078 1.83203,-10.33203 0.043,-12.42578 -2.04687,-11.22656 -4.08985,-9.914066 -6.13672,-8.601563 -6.98046,-6.339843 -8.41016,-4.808594 -11.36719,-3.578125 -13.24609,-1.535157 -12.07422,0.390626 -11.71484,2.394531 -10.53907,4.449219 -12.66796,10.09375 -7.28125,14.644532 -1.54688,9.78125 0.0664,9.45312 1.74609,9.05078 3.49219,8.19141 8.50781,10.66016 13.90625,9.72265 11.71094,6.30469 11.17187,5.24219 12.22266,5.09375 15.57812,5.75 9.15235,-9.21875 8.78906,-11.39844 5.49219,-9.77734 z m 0,0"
       id="path431" />
    <path
       style="fill:none;stroke:#859cbd;stroke-width:4.25004;stroke-linecap:square;stroke-linejoin:miter;stroke-miterlimit:3.25;stroke-opacity:1"
       d="m 221.25,328.11328 2.49609,-11.71094 -0.0664,-12.82422 -2.70703,-10.3789 -5.8125,-9.35547 -9.22657,-8.91406 -11.26172,-7.60547 -14.49609,-7.51953 -5.37109,-2.375 -5.64453,-2.3086 -2.33204,-0.90234 -9.74609,-3.74609 -9.74219,-3.74219 -9.74609,-3.7461 -9.74609,-3.74218 -9.07032,7.0039 -9.125,8.4336 -7.15234,7.99218 -6.195312,8.44532 -6.816407,14.8164 -2.503906,17.57813 0.839844,10.20703 3.109375,10.71875 4.484375,8.17578 7.359371,8.35547 9.5586,7.04687 10.87109,5.47657 11.96484,3.84375 13.05469,2.21484 15.82813,0.54297 14.10156,-1.32422 12.52344,-3.08594 10.94531,-4.84765 9.24609,-6.64844 6.14453,-7.33594 z m 0,0"
       id="path433" />
  </g>
</svg>
