<?xml version="1.0" encoding="UTF-8" standalone="no"?>
<svg
   width="321pt"
   height="432pt"
   viewBox="0 0 321 432"
   version="1.1"
   id="svg297"
   sodipodi:docname="arena6.svg"
   inkscape:version="1.2.2 (b0a8486541, 2022-12-01)"
   xmlns:inkscape="http://www.inkscape.org/namespaces/inkscape"
   xmlns:sodipodi="http://sodipodi.sourceforge.net/DTD/sodipodi-0.dtd"
   xmlns="http://www.w3.org/2000/svg"
   xmlns:svg="http://www.w3.org/2000/svg">
  <defs
     id="defs301" />
  <sodipodi:namedview
     id="namedview299"
     pagecolor="#ffffff"
     bordercolor="#666666"
     borderopacity="1.0"
     inkscape:showpageshadow="2"
     inkscape:pageopacity="0.0"
     inkscape:pagecheckerboard="0"
     inkscape:deskcolor="#d1d1d1"
     inkscape:document-units="pt"
     showgrid="false"
     inkscape:zoom="5.0430462"
     inkscape:cx="207.61261"
     inkscape:cy="287.92121"
     inkscape:window-width="2560"
     inkscape:window-height="1423"
     inkscape:window-x="0"
     inkscape:window-y="17"
     inkscape:window-maximized="1"
     inkscape:current-layer="surface64" />
  <g
     id="surface64"
     transform="matrix(0.27321783,0,0,0.20071659,116.43136,172.24558)"
     style="stroke-width:4.27026">
    <path
       style="fill:#000000;fill-opacity:1;fill-rule:evenodd;stroke:none;stroke-width:18.2351"
       d="m 40.28125,356.39453 10.921875,14.82031 12.136719,12.88672 14.765625,12.33594 14.074219,9.05859 13.042972,6.45313 13.63672,5.08203 15.89062,4.26562 14.13281,2.39844 14.35156,1.15235 15.83204,-0.14063 15.02343,-1.48047 14.58985,-2.78906 14.14843,-4.10547 13.55079,-5.37891 12.6914,-6.59765 11.82813,-7.8086 10.96875,-9.03125 9.91015,-10.14843 7.71485,-9.69532 7.71484,-12.0039 5.78906,-11.31641 4.09766,-10.30469 3.15234,-10.87109 2.20313,-11.4375 1.26172,-11.99609 0.28515,-14.64453 -0.8125,-14.16016 -1.52734,-11.41797 -2.74219,-12.47656 -3.17969,-9.96875 -3.89843,-9.32813 -5.29688,-10.05859 -6.08203,-9.14844 -5.84375,-7.11719 -7.54687,-7.46093 -8.23438,-6.60157 -8.86328,-5.76953 -9.48828,-4.9375 -10.11719,-4.10156 -12.23437,-3.67187 -12.79688,-2.58204 -11.66406,-1.36718 -13.85938,-0.54297 -10.84765,0.625 -11.22657,1.88281 -11.60546,3.13672 -11.98438,4.39062 -12.11328,5.55469 -11.55859,6.58985 -9.4336,6.47656 -8.99609,7.23437 -8.558595,8 0.226563,-11.5 0.515624,-8.74218 1.050782,-10.35938 1.171875,-7.82812 3.710941,-16.13282 5.71093,-15.63672 6.8086,-13.58593 8.68359,-12.59766 9.85938,-10.21484 10.875,-7.964846 13.02734,-6.15625 14.99609,-4.132813 15.5586,-1.632812 15.87109,0.921875 14.4375,3.234375 15.30469,6.074219 15.82031,8.804692 12.21094,9.33593 6.11719,-6.96093 12.24218,-13.929692 6.11719,-6.964844 6.12109,-6.960938 6.11719,-6.964844 6.1211,-6.964843 6.12109,-6.960938 -11.66797,-10.152343 -11.62109,-8.246094 -12.9375,-7.648438 -14.26172,-7.058594 -13.20313,-5.328124 -14.0625,-4.195313 -14.93359,-3.050781 -13.10156,-1.667969 -13.70313,-0.871094 -13.0039,-0.085937 -11.1211,0.65625 -10.96875,1.382812 -12.96875,2.621094 -10.64453,2.984375 -12.57812,4.546875 -10.2461,4.570312 -11.812498,6.484376 -9.433593,6.238281 -9.066407,7 -8.699218,7.761719 -8.328125,8.527343 -7.871094,9.277344 -7.324219,10.097656 -6.777344,10.910157 -5.027343,9.320312 -4.679688,9.83984 -4.328125,10.36329 -3.96875,10.88671 -3.480468,11.42188 -2.269532,8.92578 -2.578125,12.375 -2.0625,12.91797 -1.546875,13.46484 -0.820312,10.45313 -0.644532,14.41406 -0.132812,14.70703 0.371094,13.80859 0.867187,13.25391 1.359375,12.70703 1.851563,12.15625 2.347656,11.60156 2.085937,8.34375 3.214844,10.64063 2.734375,7.62109 3.96875,9.72266 5.40625,11.46875 4.675781,8.62891 z m 91.16406,-116.32422 -8.80859,5.06641 -8.74609,6.46484 -8.67969,7.85547 -9.839846,10.6875 3.921875,19.50781 5.230471,16.52735 7.53906,15.57031 8.63281,12.36719 9.71094,9.26953 10.63672,6.3789 13.01562,3.98047 13.50782,1.30469 12.45703,-1.07422 11.21875,-2.96094 9.73828,-4.6289 9.1875,-6.92578 7.21094,-8.46094 5.70312,-10.35938 3.72266,-11.4414 1.7539,-12.125 0.11328,-13.86328 -1.66796,-12.85547 -3.46094,-10.9336 -5.25781,-9.00781 -8.16407,-7.95312 -9.82031,-5.84766 -11.25781,-3.89844 -12.69922,-1.94922 -11.65234,-0.082 -10.86719,1.51953 -11.08594,3.125 z m 0,0"
       id="path290"
       inkscape:export-filename="arena6.png"
       inkscape:export-xdpi="400"
       inkscape:export-ydpi="400" />
    <path
       style="fill:#000000;stroke:#000000;stroke-width:4.27026;stroke-linecap:square;stroke-linejoin:miter;stroke-miterlimit:3.25;stroke-opacity:1;fill-opacity:0"
       d="m 40.28125,356.39453 10.921875,14.82031 12.136719,12.88672 14.765625,12.33594 14.074219,9.05859 13.042972,6.45313 13.63672,5.08203 15.89062,4.26562 14.13281,2.39844 14.35156,1.15235 15.83204,-0.14063 15.02343,-1.48047 14.58985,-2.78906 14.14843,-4.10547 13.55079,-5.37891 12.6914,-6.59765 11.82813,-7.8086 10.96875,-9.03125 9.91015,-10.14843 7.71485,-9.69532 7.71484,-12.0039 5.78906,-11.31641 4.09766,-10.30469 3.15234,-10.87109 2.20313,-11.4375 1.26172,-11.99609 0.28515,-14.64453 -0.8125,-14.16016 -1.52734,-11.41797 -2.74219,-12.47656 -3.17969,-9.96875 -3.89843,-9.32813 -5.29688,-10.05859 -6.08203,-9.14844 -5.84375,-7.11719 -7.54687,-7.46093 -8.23438,-6.60157 -8.86328,-5.76953 -9.48828,-4.9375 -10.11719,-4.10156 -12.23437,-3.67187 -12.79688,-2.58204 -11.66406,-1.36718 -13.85938,-0.54297 -10.84765,0.625 -11.22657,1.88281 -11.60546,3.13672 -11.98438,4.39062 -12.11328,5.55469 -11.55859,6.58985 -9.4336,6.47656 -8.99609,7.23437 -8.558595,8 0.226563,-11.5 0.515624,-8.74218 1.050782,-10.35938 1.171875,-7.82812 3.710941,-16.13282 5.71093,-15.63672 6.8086,-13.58593 8.68359,-12.59766 9.85938,-10.21484 10.875,-7.964846 13.02734,-6.15625 14.99609,-4.132813 15.5586,-1.632812 15.87109,0.921875 14.4375,3.234375 15.30469,6.074219 15.82031,8.804692 12.21094,9.33593 6.11719,-6.96093 12.24218,-13.929692 6.11719,-6.964844 6.12109,-6.960938 6.11719,-6.964844 6.1211,-6.964843 6.12109,-6.960938 -11.66797,-10.152343 -11.62109,-8.246094 -12.9375,-7.648438 -14.26172,-7.058594 -13.20313,-5.328124 -14.0625,-4.195313 -14.93359,-3.050781 -13.10156,-1.667969 -13.70313,-0.871094 -13.0039,-0.085937 -11.1211,0.65625 -10.96875,1.382812 -12.96875,2.621094 -10.64453,2.984375 -12.57812,4.546875 -10.2461,4.570312 -11.812498,6.484376 -9.433593,6.238281 -9.066407,7 -8.699218,7.761719 -8.328125,8.527343 -7.871094,9.277344 -7.324219,10.097656 -6.777344,10.910157 -5.027343,9.320312 -4.679688,9.83984 -4.328125,10.36329 -3.96875,10.88671 -3.480468,11.42188 -2.269532,8.92578 -2.578125,12.375 -2.0625,12.91797 -1.546875,13.46484 -0.820312,10.45313 -0.644532,14.41406 -0.132812,14.70703 0.371094,13.80859 0.867187,13.25391 1.359375,12.70703 1.851563,12.15625 2.347656,11.60156 2.085937,8.34375 3.214844,10.64063 2.734375,7.62109 3.96875,9.72266 5.40625,11.46875 4.675781,8.62891 z m 0,0"
       id="path292" />
    <path
       style="fill:#000000;stroke:#859cbd;stroke-width:4.27026;stroke-linecap:square;stroke-linejoin:miter;stroke-miterlimit:3.25;stroke-opacity:0;fill-opacity:0"
       d="m 131.44531,240.07031 -8.80859,5.06641 -8.74609,6.46484 -8.67969,7.85547 -9.839846,10.6875 3.921875,19.50781 5.230471,16.52735 7.53906,15.57031 8.63281,12.36719 9.71094,9.26953 10.63672,6.3789 13.01562,3.98047 13.50782,1.30469 12.45703,-1.07422 11.21875,-2.96094 9.73828,-4.6289 9.1875,-6.92578 7.21094,-8.46094 5.70312,-10.35938 3.72266,-11.4414 1.7539,-12.125 0.11328,-13.86328 -1.66796,-12.85547 -3.46094,-10.9336 -5.25781,-9.00781 -8.16407,-7.95312 -9.82031,-5.84766 -11.25781,-3.89844 -12.69922,-1.94922 -11.65234,-0.082 -10.86719,1.51953 -11.08594,3.125 z m 0,0"
       id="path294" />
  </g>
</svg>
