<?xml version="1.0" encoding="UTF-8" standalone="no"?>
<svg
   width="210mm"
   height="297mm"
   viewBox="0 0 210 297"
   version="1.1"
   id="svg32"
   sodipodi:docname="annulusBarred.svg"
   inkscape:version="1.2.2 (b0a8486541, 2022-12-01)"
   xml:space="preserve"
   xmlns:inkscape="http://www.inkscape.org/namespaces/inkscape"
   xmlns:sodipodi="http://sodipodi.sourceforge.net/DTD/sodipodi-0.dtd"
   xmlns="http://www.w3.org/2000/svg"
   xmlns:svg="http://www.w3.org/2000/svg"
   xmlns:rdf="http://www.w3.org/1999/02/22-rdf-syntax-ns#"
   xmlns:cc="http://creativecommons.org/ns#"
   xmlns:dc="http://purl.org/dc/elements/1.1/"><sodipodi:namedview
     id="namedview8"
     pagecolor="#ffffff"
     bordercolor="#666666"
     borderopacity="1.0"
     inkscape:showpageshadow="2"
     inkscape:pageopacity="0.0"
     inkscape:pagecheckerboard="0"
     inkscape:deskcolor="#d1d1d1"
     inkscape:document-units="mm"
     showgrid="true"
     inkscape:zoom="1"
     inkscape:cx="77"
     inkscape:cy="347"
     inkscape:window-width="2560"
     inkscape:window-height="1423"
     inkscape:window-x="0"
     inkscape:window-y="17"
     inkscape:window-maximized="1"
     inkscape:current-layer="svg32"><inkscape:grid
       type="xygrid"
       id="grid114" /></sodipodi:namedview><defs
     id="defs26" /><metadata
     id="metadata29"><rdf:RDF><cc:Work
         rdf:about=""><dc:format>image/svg+xml</dc:format><dc:type
           rdf:resource="http://purl.org/dc/dcmitype/StillImage" /></cc:Work></rdf:RDF></metadata><path
     id="path292"
     style="fill:#000000;stroke:#000000;stroke-width:0.400001;stroke-linecap:round;stroke-linejoin:round;paint-order:markers fill stroke;fill-opacity:1"
     d="M 100.39439 0.20102132 C 95.630638 0.18283129 90.858376 0.52450566 86.120841 1.2464355 C 48.262293 6.1279699 14.919693 34.789748 4.4105835 71.485559 C -6.9898722 108.08869 5.3289965 150.54445 34.554997 175.35829 C 63.197391 200.84274 106.95518 207.13291 141.61565 190.74495 C 176.49173 175.22895 200.23237 138.2212 199.79504 100.05281 C 199.8232 81.2538 194.38197 62.503996 184.29469 46.640564 C 166.66687 18.098303 133.74064 0.32835153 100.39439 0.20102132 z M 99.643014 34.27026 C 119.36596 34.309829 139.14052 43.007816 151.34942 58.880644 C 157.81783 66.914717 162.2898 76.497716 164.40133 86.577661 L 35.702214 86.577661 C 39.636099 68.302398 51.114865 51.593609 67.843921 42.639775 C 77.530999 36.950543 88.57892 34.248062 99.643014 34.27026 z M 35.537366 113.41995 L 164.50624 113.41995 C 159.10494 139.11464 137.35109 160.9032 111.01648 164.83955 C 80.648512 170.58736 48.126432 151.63633 38.174931 122.36824 C 37.051297 119.44292 36.17837 116.45048 35.537366 113.41995 z " /></svg>
