<?xml version="1.0" standalone="no"?>
<!DOCTYPE svg PUBLIC "-//W3C//DTD SVG 20010904//EN"
 "http://www.w3.org/TR/2001/REC-SVG-20010904/DTD/svg10.dtd">
<svg version="1.0" xmlns="http://www.w3.org/2000/svg"
 width="314.000000pt" height="314.000000pt" viewBox="0 0 314.000000 314.000000"
 preserveAspectRatio="xMidYMid meet">
<metadata>
Created by potrace 1.16, written by Peter Selinger 2001-2019
</metadata>
<g transform="translate(0.000000,314.000000) scale(0.100000,-0.100000)"
fill="#000000" stroke="none">
<path d="M1335 2713 c-65 -236 -119 -429 -120 -430 -1 -2 -185 69 -408 157
-385 151 -427 167 -427 155 0 -2 97 -176 215 -386 119 -211 212 -386 208 -390
-5 -4 -187 -84 -405 -179 -219 -95 -398 -176 -398 -180 0 -4 191 -60 425 -126
234 -65 425 -122 425 -126 0 -5 -72 -191 -160 -415 -88 -223 -158 -408 -155
-411 2 -3 179 93 392 213 213 120 389 214 391 209 64 -161 350 -796 357 -794
6 0 62 188 126 416 64 228 119 417 122 421 3 3 191 -67 418 -156 226 -90 413
-161 415 -159 2 2 -95 179 -215 393 l-219 390 26 11 c15 6 185 80 377 164 193
84 366 159 385 167 25 11 30 17 20 23 -8 4 -195 58 -415 119 -220 61 -408 115
-417 119 -15 6 3 58 143 412 88 223 158 410 157 416 -2 6 -176 -86 -388 -205
-244 -138 -388 -214 -392 -207 -4 6 -85 190 -180 409 -95 218 -175 397 -178
397 -3 0 -59 -192 -125 -427z"/>
</g>
</svg>
