<?xml version="1.0" standalone="no"?>
<!DOCTYPE svg PUBLIC "-//W3C//DTD SVG 20010904//EN"
 "http://www.w3.org/TR/2001/REC-SVG-20010904/DTD/svg10.dtd">
<svg version="1.0" xmlns="http://www.w3.org/2000/svg"
 width="285.000000pt" height="285.000000pt" viewBox="0 0 285.000000 285.000000"
 preserveAspectRatio="xMidYMid meet">
<metadata>
Created by potrace 1.16, written by Peter Selinger 2001-2019
</metadata>
<g transform="translate(0.000000,285.000000) scale(0.100000,-0.100000)"
fill="#000000" stroke="none">
<path d="M0 2835 c0 -8 194 -328 431 -710 237 -383 429 -702 426 -709 -3 -7
-197 -323 -431 -700 -234 -378 -426 -694 -426 -702 0 -8 7 -14 14 -14 8 0 329
196 712 435 l697 435 31 -18 c17 -10 332 -206 699 -435 367 -229 674 -417 682
-417 8 0 15 6 15 13 0 8 -196 326 -436 708 -240 382 -437 699 -437 704 0 6
197 322 437 704 240 381 436 700 436 708 0 8 -7 13 -18 11 -10 -2 -330 -199
-712 -438 -381 -239 -696 -434 -699 -433 -3 1 -318 198 -700 437 -382 240
-700 436 -708 436 -7 0 -13 -7 -13 -15z"/>
</g>
</svg>
