<?xml version="1.0" standalone="no"?>
<!DOCTYPE svg PUBLIC "-//W3C//DTD SVG 20010904//EN"
 "http://www.w3.org/TR/2001/REC-SVG-20010904/DTD/svg10.dtd">
<svg version="1.0" xmlns="http://www.w3.org/2000/svg"
 width="266.000000pt" height="263.000000pt" viewBox="0 0 266.000000 263.000000"
 preserveAspectRatio="xMidYMid meet">
<metadata>
Created by potrace 1.16, written by Peter Selinger 2001-2019
</metadata>
<g transform="translate(0.000000,263.000000) scale(0.100000,-0.100000)"
fill="#000000" stroke="none">
<path d="M1784 2548 c-43 -46 -168 -174 -276 -286 l-198 -203 -307 256 c-170
140 -312 255 -316 255 -5 0 -6 -8 -3 -17 10 -37 98 -763 93 -775 -3 -8 -154
-44 -391 -93 -212 -44 -385 -84 -383 -89 2 -5 153 -100 336 -212 183 -111 335
-205 338 -207 2 -3 -77 -166 -177 -362 -100 -196 -180 -358 -178 -361 3 -2
171 57 373 131 203 74 374 135 380 135 6 0 84 -162 175 -360 91 -198 168 -360
172 -360 3 0 63 171 133 380 106 318 130 380 143 376 59 -19 755 -187 762
-184 5 2 -89 155 -209 340 l-219 336 314 241 c279 215 334 261 307 261 -19 0
-751 71 -770 75 -14 3 -20 11 -18 22 8 41 14 783 7 783 -5 0 -44 -37 -88 -82z"/>
</g>
</svg>
