<?xml version="1.0" standalone="no"?>
<!DOCTYPE svg PUBLIC "-//W3C//DTD SVG 20010904//EN"
 "http://www.w3.org/TR/2001/REC-SVG-20010904/DTD/svg10.dtd">
<svg version="1.0" xmlns="http://www.w3.org/2000/svg"
 width="280.000000pt" height="283.000000pt" viewBox="0 0 280.000000 283.000000"
 preserveAspectRatio="xMidYMid meet">
<metadata>
Created by potrace 1.16, written by Peter Selinger 2001-2019
</metadata>
<g transform="translate(0.000000,283.000000) scale(0.100000,-0.100000)"
fill="#000000" stroke="none">
<path d="M1040 2821 c0 -15 -149 -874 -152 -876 -2 -1 -192 -28 -423 -59 -466
-63 -468 -63 -463 -75 2 -5 156 -136 343 -292 l341 -284 -169 -413 c-93 -228
-166 -416 -163 -419 3 -3 190 63 417 146 226 83 416 151 422 151 7 -1 133
-158 282 -350 148 -193 273 -350 277 -350 9 0 6 -11 89 470 39 228 72 415 73
416 0 0 199 27 441 60 277 37 440 63 440 70 0 6 -152 138 -337 293 -186 155
-338 284 -338 287 0 3 74 188 165 410 91 222 165 409 165 414 0 6 -3 10 -7 10
-5 -1 -195 -70 -423 -154 l-415 -153 -44 56 c-24 31 -147 190 -274 354 -127
163 -234 297 -239 297 -4 0 -8 -4 -8 -9z"/>
</g>
</svg>
